<svg xmlns="http://www.w3.org/2000/svg" viewBox="0 0 191.068 181.224" enable-background="new 0 0 191.068 181.224"><path d="M58.54 90.115c-13.254 0-24 10.746-24 24s10.746 24 24 24 24-10.746 24-24-10.746-24-24-24zm11.928 17.882c.012.264.018.53.018.796 0 8.134-6.19 17.512-17.512 17.512-3.476 0-6.712-1.018-9.434-2.766.482.057.972.085 1.468.085 2.884 0 5.538-.984 7.644-2.634-2.694-.05-4.966-1.83-5.75-4.273.376.072.762.11 1.158.11.562 0 1.106-.076 1.622-.216-2.816-.565-4.938-3.053-4.938-6.035v-.078c.83.46 1.778.738 2.788.77-1.652-1.104-2.738-2.988-2.738-5.124 0-1.128.304-2.186.834-3.094 3.036 3.723 7.57 6.173 12.686 6.43-.104-.45-.16-.92-.16-1.403 0-3.398 2.756-6.154 6.154-6.154 1.77 0 3.37.748 4.492 1.944 1.402-.276 2.72-.788 3.908-1.494-.46 1.438-1.436 2.644-2.706 3.406 1.244-.15 2.432-.48 3.534-.97-.824 1.233-1.868 2.317-3.07 3.185l.002.002z" fill="#00B0ED"/><path d="M72 4.5c-13.254 0-24 10.746-24 24s10.746 24 24 24 24-10.746 24-24-10.746-24-24-24zm14.104 20.538c-1.592 8.968-10.486 16.56-13.162 18.296-2.676 1.736-5.116-.694-6.002-2.53-1.014-2.096-4.05-13.45-4.846-14.392s-3.182.942-3.182.942l-1.158-1.518s4.846-5.786 8.534-6.51c3.91-.768 3.904 6.004 4.844 9.762.91 3.636 1.52 5.716 2.314 5.716s2.314-2.028 3.978-5.136c1.666-3.112-.072-5.86-3.326-3.904 1.302-7.812 13.596-9.69 12.006-.724v-.002z" fill="#52B8EA"/><path d="M118.897 145.224h-30c-4.95 0-9 4.05-9 9v18c0 4.95 4.05 9 9 9h30c4.95 0 9-4.05 9-9v-18c0-4.95-4.05-9-9-9zm-21 30v-24l15 12-15 12z" fill="#CD201F"/><path d="M152.55 0c-13.254 0-24 10.746-24 24s10.746 24 24 24V30h-6v-6h6v-4.5c0-4.142 3.358-7.5 7.5-7.5h7.5v6h-7.5c-.828 0-1.5.672-1.5 1.5V24h8.25l-1.5 6h-6.75v17.244c10.352-2.664 18-12.06 18-23.244 0-13.254-10.746-24-24-24z" fill="#3B5998"/><path d="M100.38 87.577c0 3.518-2.173 6.3-8.33 6.524-3.61-2.05-6.633-5.013-8.763-8.57 1.11-2.743 4.58-4.83 8.546-4.787 1.126.012 2.176.192 3.128.502 2.62 1.822 4.735 2.96 5.267 5.036.1.42.154.855.154 1.297zm3.517-38.352c-6.934 0-13.182 2.942-17.562 7.646 1.732-.957 3.776-1.53 5.948-1.53h12.02l-2.686 2.82H98.46c2.227 1.277 3.41 3.903 3.41 6.8 0 2.657-1.47 4.8-3.55 6.423-2.03 1.584-2.415 2.248-2.415 3.596 0 1.15 2.424 2.863 3.54 3.7 3.882 2.91 4.668 4.743 4.668 8.383 0 3.69-3.232 7.364-8.712 8.612 2.643 1 5.505 1.55 8.497 1.55 13.254 0 24-10.746 24-24s-10.746-24-24-24zm12 18v6h-3v-6h-6v-3h6v-6h3v6h6v3h-6zm-18.854-2.088c.558 4.256-1.306 6.994-4.544 6.896-3.24-.098-6.32-3.07-6.88-7.324-.56-4.257 1.615-7.513 4.853-7.417 3.238.096 6.01 3.588 6.57 7.842v.002zM90.25 79.32c-3.5 0-6.473 1.21-8.57 2.995-1.147-2.804-1.783-5.872-1.783-9.09 0-2.66.434-5.22 1.234-7.612.347 4.662 3.627 8.26 9.047 8.26.4 0 .786-.02 1.166-.048-.372.714-.638 1.508-.638 2.342 0 1.404.772 2.206 1.728 3.136-.722 0-1.418.02-2.18.02l-.002-.002z" fill="#DD4B39"/><path d="M40.002 40.002H8c-4.4 0-8 3.6-8 8V80c0 4.404 3.6 8 8 8h32.002c4.4 0 7.998-3.598 7.998-8V48.002c0-4.4-3.598-8-7.998-8zM34.3 78.66c-1.414.666-2.696 1.134-3.844 1.404-1.148.266-2.388.402-3.722.402-1.514 0-2.408-.19-3.572-.572-1.162-.384-2.156-.932-2.976-1.634-.824-.71-1.392-1.462-1.71-2.26S18 74.046 18 72.532V60.916h-4.5v-4.69c1.3-.422 2.81-1.028 3.736-1.816.93-.79 1.674-1.738 2.236-2.844.562-1.104.95-2.514 1.16-4.222h4.71v7.662H33v5.912h-7.658v8.494c0 1.922-.024 3.03.178 3.574.202.542.71 1.104 1.262 1.43.734.44 1.57.66 2.514.66 1.678 0 3.346-.544 5.004-1.634v5.224-.006z" fill="#35465C"/><path d="M183.1 52.5h-32.063c-4.382 0-7.968 3.586-7.968 7.968V92.53c0 4.383 3.585 7.97 7.967 7.97H183.1c4.382 0 7.968-3.587 7.968-7.97V60.47c0-4.382-3.586-7.968-7.968-7.968zm-24.667 21h17.27c.327.94.505 1.95.505 3 0 5.04-4.1 9.14-9.14 9.14s-9.14-4.1-9.14-9.14c0-1.05.177-2.06.505-3zm26.635.003v18c0 1.65-1.35 3-3 3h-30c-1.65 0-3-1.35-3-3V73.5h4.69c-.217.967-.333 1.97-.333 3 0 7.523 6.12 13.642 13.64 13.642 7.52 0 13.642-6.12 13.642-13.64 0-1.03-.116-2.035-.334-3h4.695zm0-10.503c0 .824-.674 1.5-1.5 1.5h-3c-.826 0-1.5-.676-1.5-1.5v-3c0-.824.674-1.5 1.5-1.5h3c.826 0 1.5.676 1.5 1.5v3z" fill="#3F729B"/><path d="M151.235 105.833c5.798 0 10.5 4.702 10.5 10.5s-4.702 10.5-10.5 10.5-10.5-4.702-10.5-10.5 4.702-10.5 10.5-10.5z" fill="#0063DC"/><path d="M151.235 110.333c-3.308 0-6 2.692-6 6s2.692 6 6 6 6-2.692 6-6-2.692-6-6-6z" fill="#fff"/><circle cx="124.235" cy="116.333" r="10.5" fill="#FF0084"/></svg>