<svg xmlns="http://www.w3.org/2000/svg" width="24" height="24"><path d="M18.505 1.5h-6.28C9.41 1.5 6.76 3.633 6.76 6.104c0 2.525 1.92 4.562 4.783 4.562.2 0 .393-.004.582-.018-.186.356-.32.757-.32 1.173 0 .703.378 1.272.856 1.736-.36 0-.708.01-1.088.01-3.487 0-6.17 2.222-6.17 4.525 0 2.27 2.94 3.688 6.43 3.688 3.975 0 6.17-2.256 6.17-4.524 0-1.82-.537-2.908-2.196-4.08-.568-.403-1.653-1.38-1.653-1.954 0-.673.192-1.005 1.205-1.796 1.04-.81 1.774-1.952 1.774-3.28 0-1.58-.704-3.118-2.024-3.626h1.99l1.406-1.016zM16.31 16.862c.05.21.078.427.078.648 0 1.833-1.18 3.265-4.57 3.265-2.41 0-4.15-1.526-4.15-3.36 0-1.795 2.158-3.29 4.568-3.265.563.006 1.087.096 1.563.25 1.307.91 2.246 1.425 2.51 2.462zm-3.858-6.836c-1.618-.048-3.156-1.81-3.435-3.934s.806-3.75 2.423-3.703c1.617.048 3.156 1.752 3.435 3.877s-.806 3.808-2.423 3.76z" fill="#444"/></svg>