<svg xmlns="http://www.w3.org/2000/svg" width="24" height="24"><path d="M13.103 1.5h-6.28c-2.815 0-5.465 2.133-5.465 4.604 0 2.525 1.92 4.562 4.783 4.562.2 0 .394-.004.583-.018-.186.356-.32.757-.32 1.173 0 .703.378 1.272.856 1.736-.362 0-.71.01-1.09.01-3.487 0-6.17 2.222-6.17 4.525 0 2.27 2.94 3.688 6.43 3.688 3.975 0 6.17-2.256 6.17-4.524 0-1.82-.537-2.908-2.196-4.08-.568-.403-1.653-1.38-1.653-1.954 0-.673.193-1.005 1.206-1.796 1.04-.812 1.774-1.952 1.774-3.28 0-1.58-.704-3.118-2.024-3.626h1.99l1.406-1.016zM10.91 16.862c.05.21.077.427.077.648 0 1.833-1.18 3.265-4.57 3.265-2.41 0-4.15-1.526-4.15-3.36 0-1.795 2.158-3.29 4.568-3.265.563.006 1.087.096 1.563.25 1.308.91 2.247 1.425 2.512 2.462zm-3.86-6.836c-1.618-.048-3.156-1.81-3.435-3.934s.806-3.75 2.423-3.703c1.617.048 3.156 1.752 3.435 3.877s-.806 3.808-2.423 3.76zM19.5 6V1.5H18V6h-4.5v1.5H18V12h1.5V7.5H24V6z" fill="#444"/></svg>