<svg xmlns="http://www.w3.org/2000/svg" width="24" height="24" viewBox="0 0 24 24"><path d="M.02 20.383c-.007-.06-.012-.12-.015-.18.003.06.008.12.014.18zm5.51-7.137c2.155.064 3.602-2.173 3.23-4.997S6.337 3.16 4.18 3.094C2.023 3.03.577 5.192.95 8.017c.37 2.823 2.42 5.165 4.58 5.23zM24 6V4c0-2.2-1.8-4-4-4H4C1.837 0 .062 1.74.002 3.89 1.37 2.684 3.267 1.677 5.226 1.677H13.6l-1.875 1.585H9.07c1.76.675 2.7 2.722 2.7 4.822 0 1.764-.98 3.28-2.366 4.36-1.35 1.05-1.607 1.492-1.607 2.387 0 .764 1.447 2.062 2.204 2.597 2.213 1.558 2.93 3.006 2.93 5.424 0 .385-.05.77-.143 1.147H20c2.2 0 4-1.798 4-4V7.5h-4.5V12H18V7.5h-4.5V6H18V1.5h1.5V6H24zM4.357 17.952c.507 0 .97-.014 1.452-.014-.637-.617-1.14-1.373-1.14-2.306 0-.553.176-1.086.424-1.56-.253.02-.51.024-.776.024-1.743 0-3.223-.564-4.317-1.497v6.303c1.253-.595 2.74-.952 4.358-.952zM.08 20.795c-.026-.128-.046-.258-.06-.39.013.132.034.262.06.39zm10.595 1.537c-.353-1.378-1.604-2.062-3.35-3.27-.634-.206-1.332-.326-2.082-.334-2.1-.023-4.057.82-5.16 2.07C.454 22.62 2.074 24 4.002 24h6.713c.043-.26.063-.53.063-.807 0-.294-.037-.58-.104-.86z"/></svg>