<svg xmlns="http://www.w3.org/2000/svg" width="24" height="24" viewBox="0 0 24 24"><path d="M10.242 19.176c0 1.76-1.087 3.15-4.166 3.262-1.804-1.026-3.316-2.507-4.38-4.286.554-1.37 2.29-2.415 4.272-2.393.563.005 1.088.095 1.564.25 1.31.91 2.367 1.48 2.633 2.518.05.21.077.427.077.648zM12 0C8.533 0 5.41 1.47 3.22 3.823c.865-.48 1.887-.765 2.973-.765h6.01l-1.343 1.41H9.282c1.113.638 1.705 1.95 1.705 3.4 0 1.328-.736 2.4-1.776 3.21-1.013.793-1.206 1.125-1.206 1.8 0 .574 1.212 1.43 1.77 1.85 1.94 1.455 2.334 2.37 2.334 4.19 0 1.846-1.616 3.683-4.356 4.307 1.32.5 2.752.775 4.248.775 6.627 0 12-5.373 12-12S18.627 0 12 0zm6 9v3h-1.5V9h-3V7.5h3v-3H18v3h3V9h-3zM8.573 7.956c.28 2.128-.653 3.497-2.272 3.448S3.14 9.87 2.863 7.742c-.28-2.128.807-3.756 2.426-3.708s3.005 1.794 3.285 3.92zm-3.396 7.092c-1.75 0-3.237.604-4.285 1.497C.318 15.143 0 13.61 0 12c0-1.33.217-2.61.617-3.806.173 2.33 1.813 4.13 4.523 4.13.2 0 .393-.01.583-.024-.186.357-.32.754-.32 1.17 0 .703.387 1.104.865 1.57-.36 0-.71.01-1.09.01z"/></svg>