<svg xmlns="http://www.w3.org/2000/svg" width="24" height="24"><path d="M20.016 0H3.986C1.793 0 0 1.793 0 3.984v16.03C0 22.207 1.795 24 3.986 24h16.03C22.208 24 24 22.205 24 20.014V3.985C24 1.792 22.207 0 20.016 0zM7.683 10.5h8.634c.164.47.253.975.253 1.5 0 2.52-2.05 4.57-4.57 4.57S7.43 14.52 7.43 12c0-.525.09-1.03.253-1.5zM21 10.5v9c0 .825-.675 1.5-1.5 1.5h-15c-.825 0-1.5-.675-1.5-1.5v-9h2.346c-.11.483-.167.985-.167 1.5 0 3.76 3.06 6.82 6.82 6.82s6.82-3.06 6.82-6.82c0-.515-.06-1.017-.168-1.5h2.346zm0-5.25c0 .412-.337.75-.75.75h-1.5c-.413 0-.75-.338-.75-.75v-1.5c0-.412.337-.75.75-.75h1.5c.413 0 .75.338.75.75v1.5z" fill="#444"/></svg>