<svg xmlns="http://www.w3.org/2000/svg" viewBox="0 0 215.001 274.47" enable-background="new 0 0 215.001 274.47"><path fill="#1976D2" d="M73.685 137.237l6.082 90.535h23.777l-9.362-85.793z"/><path fill="#0D47A1" d="M134.22 239.525l-54.453-11.753h23.777l51.618 11.753z"/><path d="M153.535 89.146l-32.82 45.746 65.81 98.848c.823 1.106 1.102 2.206 1.102 3.033 0 1.655-1.38 2.75-3.857 2.75h-47.356c-3.304 0-4.684-1.654-6.058-3.856l-55.902-90.86v89.213c0 3.023-2.476 5.505-5.505 5.505H32.877c-3.023 0-5.505-2.482-5.505-5.505V40.175c0-3.03 2.482-5.23 5.505-5.23H68.95c3.03 0 5.505 2.2 5.505 5.23v87.563l27.868-42.17c1.38-2.202 3.03-3.302 6.06-3.302h42.13c3.022 0 4.402 1.374 4.402 3.03 0 1.1-.553 2.475-1.38 3.85z" fill="#2196F3"/></svg>