<svg xmlns="http://www.w3.org/2000/svg" width="24" height="24"><path d="M20 0H4C1.8 0 0 1.8 0 4v16c0 2.2 1.8 4 4 4h16c2.2 0 4-1.8 4-4V4c0-2.2-1.8-4-4-4zm-2.85 19.33c-.707.332-1.348.566-1.922.7-.574.134-1.194.202-1.86.202-.758 0-1.205-.095-1.787-.286-.58-.192-1.077-.466-1.487-.817-.412-.356-.696-.732-.855-1.13S9 17.02 9 16.264v-5.808H6.75V8.112c.65-.21 1.405-.514 1.868-.908.465-.395.837-.87 1.118-1.422.28-.552.475-1.257.58-2.11h2.355V7.5h3.83v2.956h-3.83v4.247c0 .96-.01 1.515.09 1.787.1.27.355.552.63.715.368.22.786.33 1.258.33.84 0 1.673-.272 2.502-.817v2.612z" fill="#444"/></svg>