<svg xmlns="http://www.w3.org/2000/svg" width="24" height="24"><path d="M13.5 10.5v5.49c0 1.392-.017 2.194.13 2.59.147.392.515.8.915 1.035.532.318 1.138.478 1.82.478 1.216 0 1.934-.16 3.136-.95v3.608c-1.023.483-1.918.765-2.75.96-.83.193-1.73.29-2.696.29-1.098 0-1.745-.137-2.588-.413-.843-.278-1.562-.675-2.157-1.185-.597-.514-1.01-1.06-1.24-1.637s-.345-1.416-.345-2.514V9.836h-3.22v-3.4C5.444 6.13 6.5 5.692 7.17 5.12c.675-.573 1.214-1.26 1.62-2.06.41-.8.69-1.822.842-3.06h3.87v6H19.5v4.5h-6z" fill="#444"/></svg>