<svg xmlns="http://www.w3.org/2000/svg" width="24" height="24" viewBox="0 0 24 24"><path d="M12 0C5.373 0 0 5.373 0 12s5.373 12 12 12 12-5.373 12-12S18.627 0 12 0zm5.964 8.94c.006.133.01.266.01.4 0 4.066-3.096 8.755-8.757 8.755-1.738 0-3.356-.51-4.717-1.383.24.03.486.043.734.043 1.442 0 2.77-.492 3.822-1.317-1.347-.025-2.483-.915-2.875-2.137.19.037.382.056.58.056.28 0 .553-.038.81-.108-1.407-.283-2.468-1.527-2.468-3.018v-.04c.415.23.89.37 1.394.386-.826-.552-1.37-1.494-1.37-2.562 0-.564.153-1.093.418-1.547C7.062 8.33 9.33 9.554 11.887 9.682c-.052-.225-.08-.46-.08-.7 0-1.7 1.378-3.078 3.077-3.078.885 0 1.685.374 2.246.972.7-.138 1.36-.394 1.954-.747-.23.718-.718 1.32-1.353 1.702.623-.074 1.217-.24 1.768-.485-.412.617-.934 1.16-1.535 1.593z"/></svg>