<svg xmlns="http://www.w3.org/2000/svg" width="24" height="24"><path d="M24 4.557c-.883.392-1.832.656-2.828.775 1.017-.61 1.797-1.574 2.165-2.724-.95.564-2.005.974-3.127 1.195-.898-.957-2.178-1.555-3.594-1.555-2.72 0-4.924 2.204-4.924 4.924 0 .386.044.762.127 1.122C7.726 8.09 4.1 6.128 1.67 3.15c-.424.726-.667 1.572-.667 2.474 0 1.708.87 3.215 2.19 4.098-.807-.026-1.566-.247-2.23-.616v.062c0 2.386 1.697 4.376 3.95 4.828-.413.112-.848.173-1.297.173-.317 0-.626-.032-.926-.09.627 1.957 2.445 3.38 4.6 3.42-1.685 1.32-3.808 2.108-6.115 2.108-.397 0-.79-.023-1.175-.07 2.18 1.398 4.767 2.213 7.548 2.213 9.057 0 14.01-7.502 14.01-14.01 0-.212-.006-.425-.015-.636.962-.694 1.797-1.56 2.457-2.55z" fill="#444"/></svg>