<svg xmlns="http://www.w3.org/2000/svg" width="60" height="24"><path d="M8.063 3.97l.01-.042.023-.177-1.11-.005c-1.003-.006-1.31 0-1.337.025-.014.012-.36 1.327-.977 3.71-.294 1.136-.542 2.044-.55 2.017s-.36-1.324-.783-2.882c-.422-1.558-.776-2.842-.786-2.852-.015-.015-1.36-.02-2.447-.012-.158.002-.246-.306 1.407 4.95.23.727.57 1.757.76 2.288.22.613.376 1.086.482 1.48.188.753.195 1.224.154 1.773-.047.636-.054 5.12-.008 5.196.035.057 2.138.084 2.337.03.03-.01.052-.04.066-.21.05-.145.054-.725.054-3.134v-3.077l.135-.425c.088-.278.31-1.008.492-1.622s.403-1.35.49-1.635c.794-2.586 1.55-5.13 1.57-5.274l.017-.12zM19.83 7.703v.16h-.024l-.014 4.43-.014 4.294-.344.35c-.385.392-.693.54-.972.47-.304-.075-.296.043-.322-5.033l-.023-4.672h-2.21v.16h-.026v5.07c0 5.43 0 5.428.276 5.974.22.434.54.646 1.087.72.722.095 1.5-.232 2.22-.934l.314-.305v.526c0 .455.013.53.095.553.135.038 1.81.04 1.99.003l.15-.032v-.155l.025-.005V7.674l-2.208.03zM14.224 9.992c-.21-.9-.602-1.503-1.248-1.92-1.014-.656-2.173-.726-3.248-.194-.783.387-1.288 1.03-1.55 1.97-.03.113-.053.208-.07.348-.066.332-.074.83-.09 3.14-.027 3.56.013 3.983.46 4.792.436.793 1.344 1.375 2.333 1.495.3.036.902-.02 1.25-.116.787-.22 1.543-.842 1.877-1.55.144-.304.23-.517.284-.905.1-.53.106-1.387.106-3.57 0-2.787-.01-3.092-.102-3.49zm-2.52 7.258c-.186.14-.51.203-.774.146-.203-.043-.477-.36-.56-.652-.106-.362-.114-5.39-.023-6.376.15-.493.567-.75 1.023-.628.355.096.537.318.64.784.078.346.087.776.07 3.31-.01 1.68-.016 2.503-.07 2.944-.057.278-.15.353-.306.472zM53.915 12.52h1.068l-.017-.97c-.017-.887-.03-.988-.148-1.23-.187-.38-.463-.547-.9-.547-.527 0-.86.254-1.018.777-.067.222-.137 1.75-.087 1.882.028.074.18.087 1.102.087zM46.776 10.318c-.142-.287-.407-.428-.715-.417-.24.01-.504.11-.76.306l-.19.145v6.953l.19.145c.432.33.906.4 1.233.18.13-.086.214-.205.28-.394.084-.247.092-.563.08-3.487-.01-3.048-.017-3.227-.117-3.427zM60.02 7.187c-.212-2.55-.38-3.38-.907-4.442-.697-1.41-1.704-2.15-3.138-2.314-1.11-.125-5.28-.303-9.142-.39C40.15-.107 29.16.18 27.756.538c-.65.166-1.135.448-1.64.952-.888.882-1.416 2.148-1.63 3.9-.484 3.998-.494 8.83-.027 12.972.2 1.782.614 2.94 1.39 3.894.486.595 1.322 1.102 2.07 1.253.525.105 3.15.252 6.975.39.57.02 2.078.056 3.352.078 2.655.047 7.538.02 10.33-.06 1.877-.052 5.3-.19 5.94-.24.18-.014.597-.04.927-.06 1.108-.062 1.813-.294 2.475-.814.856-.673 1.52-1.917 1.8-3.376.264-1.38.442-3.838.478-6.63.03-2.33-.01-3.59-.18-5.61zm-26.615-.925l-1.242.015-.055 13.246-1.077.014c-.832.01-1.084 0-1.104-.055-.014-.038-.032-3.024-.04-6.636l-.013-6.568-2.426-.03v-2.07l7.168.028.03 2.04-1.24.016zm7.616 7.592v5.696h-1.96v-.6c0-.45-.018-.6-.07-.6-.04 0-.217.15-.396.33-.388.394-.848.712-1.24.86-.812.303-1.584.126-1.913-.44-.3-.518-.306-.634-.306-6.008V8.157h1.96l.016 4.647c.015 4.566.017 4.65.126 4.836.145.247.366.313.717.216.207-.057.348-.157.683-.49l.422-.422V8.156h1.962v5.696zm7.654 4.882c-.173.385-.558.762-.874.855-.824.244-1.485.046-2.248-.672-.237-.223-.457-.404-.49-.404-.04 0-.062.175-.062.518v.518h-1.962V4.18H45v2.506c0 1.38.018 2.507.04 2.507s.23-.183.46-.405c.53-.512.975-.736 1.537-.778 1.003-.076 1.6.44 1.875 1.62.085.368.094.788.094 4.197 0 4.153 0 4.17-.332 4.91zm8.302-2.28c-.017.428-.07.918-.116 1.09-.273 1.013-1 1.73-2.05 2.023-1.413.395-2.97-.254-3.59-1.497-.35-.698-.36-.837-.36-4.247 0-2.78.01-3.12.098-3.5.252-1.073.876-1.768 1.933-2.153.307-.112.627-.17.946-.175 1.14-.023 2.273.59 2.748 1.59.32.673.36.96.392 2.86l.03 1.704-4.185.03-.014 1.144c-.022 1.615.087 2.11.523 2.405.366.248.93.23 1.236-.04.287-.252.37-.523.397-1.315l.026-.695h2.02l-.033.777z" fill="#444"/></svg>