<svg xmlns="http://www.w3.org/2000/svg" width="24" height="24" viewBox="0 0 24 24"><path d="M6.872 0L5.25 3.216 3.628 0H1.56l2.923 5.093.017-.01V9H6V5.083l.017.01L8.94 0zM11.25 3c.407 0 .75.343.75.75v3c0 .407-.343.75-.75.75s-.75-.343-.75-.75v-3c0-.407.343-.75.75-.75zm0-1.5C10.012 1.5 9 2.513 9 3.75v3C9 7.988 10.012 9 11.25 9s2.25-1.012 2.25-2.25v-3c0-1.237-1.013-2.25-2.25-2.25zM18 1.5v5.905c-.654.546-1.5.875-1.5-1.07V1.5H15v5.14h.002c.023 1.24.285 3.472 2.998 1.656v.702h1.5v-7.5H18zM20.25 16.5c-.414 0-.75.336-.75.75V18H21v-.75c0-.414-.336-.75-.75-.75zM13.5 17.25v3.938c.508.508 1.5.563 1.5-.188v-3.516s-.75-.984-1.5-.234zM23.877 13.63c-.065-.864-.376-1.57-.932-2.115s-1.268-.844-2.134-.893c-1.635-.082-5.377-.122-8.664-.122s-7.296.04-8.932.122c-.867.05-1.578.346-2.134.893s-.867 1.25-.932 2.115C.05 15.39 0 16.03 0 16.91s.05 2.2.148 3.96c.065.864.376 1.57.932 2.115s1.268.844 2.134.893c1.636.08 5.644.122 8.932.122s7.03-.04 8.665-.122c.868-.05 1.58-.346 2.135-.893s.867-1.25.932-2.115c.082-1.467.123-2.788.123-3.96s-.04-1.813-.123-3.28zM4.5 22.5H3V15H1.5v-1.5H6V15H4.5v7.5zm6 0H9v-.702c-2.852 1.6-2.975.052-2.998-1.19H6V16.5h1.5v4.133c0 .906.846.82 1.5.273V16.5h1.5v6zm6-1.52c0 1.567-1.606 2.024-3 .805v.715H12v-9h1.5v2.438c1.5-1.5 3-.938 3 .563v4.48zm6-2.98v.75h-3v1.5c0 .414.336.75.75.75s.75-.336.75-.75v-.75h1.5v.75c0 1.24-1.01 2.25-2.25 2.25S18 21.49 18 20.25v-3c0-1.24 1.01-2.25 2.25-2.25s2.25 1.01 2.25 2.25V18z"/></svg>